<?xml version="1.0" encoding="utf-8"?>
<!-- Designed by Vexels.com - 2019 All Rights Reserved - https://vexels.com/terms-and-conditions/  -->
<svg version="1.1" id="Layer_1" xmlns="http://www.w3.org/2000/svg" xmlns:xlink="http://www.w3.org/1999/xlink" x="0px" y="0px"
	 viewBox="0 0 1200 1200" enable-background="new 0 0 1200 1200" xml:space="preserve">
<path fill="#363E54" d="M936.777,764.585l-219.908-91.744V533.613h3.227h10.746v-5.071v-21.207h-14.895l0.461-141.073h14.434v-27.2
	h-24.115l-103.73-222.213V80.427l16.136-0.461v-8.759l-15.675-0.922V50h-9.682v21.668h-15.675v9.682h15.675v35.499L488.663,339.522
	l-23.973,0.461l0.461,26.278h14.292l0.922,141.073h-17.058l0.461,25.817l15.214,0.922l2.766,136.463l-1.383,1.844l-217.142,90.36
	v23.051l18.441-5.071v112.951L283.508,1150l231.728-0.677c-0.175-10.717-2.396-150.386,0.011-172.049
	c2.503-22.529,20.026-80.104,89.561-80.104c34.768,0,56.184,20.652,68.909,41.304c11.193,18.166,16.758,39.242,16.758,60.579
	v149.758l224.633-0.656l-2.766-370.201l24.434,9.22V764.585z M438.412,1034.744h-96.815V897.17h96.815V1034.744z M635.499,800.66
	h-72.611c0,0-1.037-62.238,0-71.574c1.037-9.336,8.298-33.194,37.112-33.194c14.407,0,23.282,8.558,28.555,17.115
	c4.671,7.581,6.944,16.397,6.944,25.302V800.66z M635.499,488.432h-72.611c0,0-1.037-62.238,0-71.574
	c1.037-9.336,8.298-33.194,37.112-33.194c14.407,0,23.282,8.558,28.555,17.115c4.671,7.581,6.944,16.397,6.944,25.302V488.432z
	 M851.747,1034.744h-96.815V897.17h96.815V1034.744z"/>
</svg>
